<?xml version="1.0" encoding="utf-8"?>
<!-- Generator: Adobe Illustrator 18.0.0, SVG Export Plug-In . SVG Version: 6.00 Build 0)  -->
<!DOCTYPE svg PUBLIC "-//W3C//DTD SVG 1.1//EN" "http://www.w3.org/Graphics/SVG/1.1/DTD/svg11.dtd">
<svg version="1.1" id="Layer_1" xmlns="http://www.w3.org/2000/svg" xmlns:xlink="http://www.w3.org/1999/xlink" x="0px" y="0px"
	 viewBox="260 358.5 75.3 75" enable-background="new 260 358.5 75.3 75" xml:space="preserve">
<g>
	<path fill="#035E8E" d="M260.2,425.7c0-19.8,0-39.6,0-59.4c0-0.1,0.2-0.1,0.2-0.2c0.3-2.6,1.7-4.5,3.7-6c1.2-0.9,2.6-1.2,3.9-1.6
		c19.8,0,39.6,0,59.4,0c0.1,0,0.1,0.2,0.2,0.2c2.6,0.3,4.5,1.7,6,3.7c0.9,1.2,1.2,2.6,1.6,3.9c0,19.8,0,39.6,0,59.4
		c0,0.1-0.2,0.1-0.2,0.2c-0.3,2.5-1.7,4.5-3.7,6c-1.2,0.9-2.6,1.2-3.9,1.6c-19.8,0-39.6,0-59.4,0c-0.1,0-0.1-0.2-0.2-0.2
		c-2.6-0.3-4.5-1.7-6-3.7C261,428.5,260.7,427.1,260.2,425.7z M293.8,394.4c1.4-0.7,2.5-1.5,3.2-2.8c1-1.8,1.2-3.9,0.7-5.9
		c-0.3-1.5-1-2.9-2.2-3.9c-2-1.8-4.5-2.4-7.2-2.4c-5-0.1-10,0-15,0c-0.7,0-0.9,0.1-0.9,0.9c0,10.2,0,20.4,0,30.6
		c0,0.7,0.2,0.9,0.9,0.9c4.9,0,9.8,0,14.7,0c1.1,0,2.3-0.1,3.4-0.4c3.2-0.7,5.5-2.6,6.8-5.7c0.7-1.6,0.9-3.2,0.6-4.9
		c-0.2-1.6-0.7-3-1.8-4.2C296.1,395.6,295,395.1,293.8,394.4z M315.8,401.6c2.7,0,5.4,0,8.1,0c0.4,0,0.7,0,0.7-0.5
		c0-2.3,0-4.6-0.9-6.8c-1-2.6-2.7-4.6-5.2-5.7c-3-1.4-6.1-1.6-9.3-0.7c-3.2,0.9-5.6,2.8-6.9,5.9c-1.3,3-1.4,6.1-1.1,9.2
		c0.5,4.5,3,7.3,7.2,8.9c2.6,1,5.3,1.1,8,0.5c3.7-0.9,6.4-3,7.8-6.6c0.2-0.6,0-0.7-0.5-0.7c-1.5,0-3,0-4.5,0c-0.7,0-1.3,0-1.6,0.7
		c-0.2,0.4-0.7,0.8-1.1,1.1c-1.4,0.9-2.9,1.1-4.6,0.8c-3-0.5-4.5-2.5-4.7-5.3c0-0.7,0.2-0.8,0.8-0.8
		C310.6,401.6,313.2,401.6,315.8,401.6z M312.4,381.3c-1.5,0-3.1,0-4.6,0c-0.8,0-1.9-0.3-2.3,0.2c-0.4,0.5-0.1,1.6-0.2,2.4
		c0,0.6,0.2,0.7,0.7,0.7c3.6,0,7.1,0,10.7,0c0.8,0,2,0.4,2.4-0.2c0.4-0.5,0.1-1.6,0.2-2.5c0-0.5-0.2-0.7-0.7-0.7
		C316.6,381.3,314.5,381.3,312.4,381.3z"/>
	<path fill="#035E8E" d="M283.6,406.3c-1.4,0-2.9,0-4.2,0c-0.6,0-0.7-0.2-0.7-0.7c0-2.5,0-5,0-7.5c0-0.5,0.1-0.7,0.6-0.7
		c2.5,0,5-0.1,7.5,0c1.1,0,2.2,0.1,3.3,0.6c2,0.9,2.4,2.9,2.1,4.6c-0.5,2.7-2.1,3.7-4.8,3.7C286.1,406.3,284.8,406.3,283.6,406.3z"
		/>
	<path fill="#035E8E" d="M283.3,392.3c-1.3,0-2.7,0-4,0c-0.5,0-0.7-0.2-0.7-0.7c0-2.1,0-4.1,0-6.2c0-0.5,0.2-0.7,0.7-0.7
		c2.4,0,4.8,0,7.3,0c0.9,0,1.9,0.2,2.8,0.3c1.3,0.3,2.2,1.5,2.2,2.9c0,2.2-0.7,3.5-2.2,3.8c-1,0.2-2,0.5-3,0.4
		C285.3,392.3,284.3,392.3,283.3,392.3z"/>
	<path fill="#035E8E" d="M307.2,397.6c0.2-1.3,0.5-2.5,1.3-3.5c1.7-2,3.9-2.1,6.3-1.4c1.9,0.5,3.2,2.4,3.4,4.2
		c0,0.3,0.1,0.7-0.5,0.7C314.2,397.6,310.7,397.6,307.2,397.6z"/>
</g>
</svg>
