<?xml version="1.0" encoding="utf-8"?>
<!-- Generator: Adobe Illustrator 18.0.0, SVG Export Plug-In . SVG Version: 6.00 Build 0)  -->
<!DOCTYPE svg PUBLIC "-//W3C//DTD SVG 1.1//EN" "http://www.w3.org/Graphics/SVG/1.1/DTD/svg11.dtd">
<svg version="1.1" id="Layer_1" xmlns="http://www.w3.org/2000/svg" xmlns:xlink="http://www.w3.org/1999/xlink" x="0px" y="0px"
	 viewBox="259.8 358.2 76.2 75.6" enable-background="new 259.8 358.2 76.2 75.6" xml:space="preserve">
<g>
	<path fill="#005E8F" d="M336,397c-0.1,9.9-4.1,19.2-12.1,26.7c-7.7,7.1-16.8,10.4-27.3,10c-10.5-0.4-19.4-4.6-26.4-12.4
		c-6.6-7.2-9.9-15.8-9.8-25.5c0.1-11.1,4.3-20.6,12.6-28c7.6-6.9,16.7-10.1,26.9-9.6c10.3,0.5,19.1,4.6,26.2,12.2
		C332.7,377.6,336,386.2,336,397z M328.4,396c0.1-16.9-13.7-29.8-29.1-30.3c-8.6-0.3-16.2,2.6-22.3,8.6c-6.1,5.9-9.1,13.2-9.1,21.6
		c0,8,2.9,15.1,8.4,20.9c5.6,5.8,12.5,9,20.6,9.4C314.8,427,328.7,412.4,328.4,396z"/>
	<path fill="#005D8E" d="M276.8,396c-0.3-11.6,9.5-21.7,21.9-21.5c11,0.2,21.6,9.3,20.9,22.9c-0.6,10.6-9.4,20.3-22,20.1
		C286.4,417.3,276.5,408,276.8,396z M298.5,413.5c1.7,0.1,3.6-0.3,5.5-0.9c0.4-0.1,0.5-0.2,0.4-0.7c-0.7-4.1-1.8-8.1-3.3-11.9
		c-0.2-0.5-0.3-0.6-0.9-0.4c-5.4,1.7-9.3,5.3-12.4,9.9c-0.2,0.3-0.2,0.5,0.2,0.8C291,412.4,294.4,413.6,298.5,413.5z M284.6,407
		c1.6-2.2,3.2-4.2,5.2-6c2.3-2,4.9-3.7,7.7-4.7c1.8-0.7,1.8-0.6,0.9-2.4c-0.2-0.4-0.4-0.5-0.9-0.3c-4.5,1.3-9.1,1.9-13.7,2.1
		c-0.7,0-1.5,0-2.2,0c-0.6,0-1.1,0.2-1.1,1c0,1.1,0.2,2.3,0.5,3.4C281.7,402.6,282.8,405,284.6,407z M296.3,389.8
		c-0.1-0.2-0.1-0.3-0.2-0.4c-1.7-2.9-3.6-5.7-5.5-8.5c-0.3-0.4-0.6-0.5-1-0.2c-0.5,0.4-1.1,0.7-1.6,1.1c-3.5,2.5-5.7,5.8-6.9,9.9
		C286.3,391.7,291.3,391.2,296.3,389.8z M294,378.9c0.4,0.6,0.7,1,1.1,1.5c1.6,2.4,3.3,4.8,4.6,7.4c0.2,0.3,0.3,0.8,1,0.5
		c3.1-1.5,5.9-3.4,8.1-6.2C304.4,378.7,299.5,377.8,294,378.9z M304.7,398.4c1.3,3.5,2.3,6.9,3,10.3c0.1,0.5,0,1.3,0.4,1.5
		c0.5,0.2,1-0.5,1.4-0.8c3-2.6,4.9-5.9,5.9-9.7c0.2-0.7-0.1-1-0.8-1.1c-0.7,0-1.5-0.2-2.2-0.2C309.8,398.2,307.3,398.3,304.7,398.4z
		 M311.6,384.8c-0.1,0.1-0.1,0.2-0.2,0.3c-2.5,2.7-5.4,5-8.8,6.5c-0.3,0.2-0.7,0.3-0.5,0.9c0.3,0.7,0.6,1.3,0.9,2.1
		c0.1,0.2,0.1,0.3,0.4,0.3c1.3-0.2,2.6-0.4,3.9-0.5c2.5-0.1,5,0.1,7.4,0.5c0.6,0.1,0.8,0,0.8-0.7c0-0.6-0.2-1.3-0.3-1.8
		C314.7,389.5,313.5,387,311.6,384.8z"/>
</g>
</svg>
