<?xml version="1.0" encoding="utf-8"?>
<!-- Generator: Adobe Illustrator 18.0.0, SVG Export Plug-In . SVG Version: 6.00 Build 0)  -->
<!DOCTYPE svg PUBLIC "-//W3C//DTD SVG 1.1//EN" "http://www.w3.org/Graphics/SVG/1.1/DTD/svg11.dtd">
<svg version="1.1" id="Layer_1" xmlns="http://www.w3.org/2000/svg" xmlns:xlink="http://www.w3.org/1999/xlink" x="0px" y="0px"
	 viewBox="0 136 792 346" enable-background="new 0 136 792 346" xml:space="preserve">
<g>
	<g>
		<g>
			<defs>
				<rect id="SVGID_1_" x="11.3" y="143.6" width="769.5" height="332.4"/>
			</defs>
			<clipPath id="SVGID_2_">
				<use xlink:href="#SVGID_1_"  overflow="visible"/>
			</clipPath>
			<path clip-path="url(#SVGID_2_)" fill="#035E8E" d="M592.5,150l45.9,226.8h0.9L685.2,150h95.5v321.4h-59.7V215.2h-0.9
				l-56.9,256.2h-50.5l-56.9-256.2h-0.9v256.2h-58.8V150L592.5,150L592.5,150z M451.1,202.4H336.3v75.3h108.4v53.3H336.3v86.3h119.4
				v53.3H272V149.1h180v53.3L451.1,202.4L451.1,202.4z M155.4,226.2c-0.9-6.4-3.7-11.9-6.4-17.4c-2.8-5.5-6.4-9.2-11-12.9
				c-4.6-3.7-10.1-5.5-16.5-5.5c-15.6,0-26.6,8.3-34,25.7c-7.3,17.4-10.1,45.9-10.1,86.3c0,19.3,0.9,36.7,1.8,52.3
				c0.9,15.6,3.7,28.5,6.4,39.5c2.8,11,7.3,19.3,13.8,24.8c5.5,5.5,13.8,9.2,23,9.2c3.7,0,8.3-0.9,12.9-2.8
				c4.6-1.8,9.2-5.5,12.9-9.2c3.7-4.6,7.3-9.2,10.1-15.6c2.8-6.4,3.7-13.8,3.7-23v-33.1h-43.2v-47.7h104.7v173.5h-47.7v-29.4h-0.9
				c-8.3,12.9-17.4,21.1-28.5,26.6c-11,5.5-23.9,8.3-39.5,8.3c-20.2,0-35.8-3.7-48.7-10.1c-12.9-7.3-22-17.4-29.4-32.1
				c-7.3-14.7-11.9-32.1-13.8-53.3c-2.8-21.1-3.7-45.9-3.7-73.5c0-26.6,1.8-50.5,5.5-70.7s9.2-37.6,17.4-51.4
				c8.3-13.8,19.3-23.9,33.1-31.2c13.8-7.3,31.2-10.1,51.4-10.1c35.8,0,60.6,9.2,76.2,26.6c15.6,17.4,23,42.2,23,75.3h-62.4
				C157.3,239.1,156.3,232.7,155.4,226.2"/>
		</g>
	</g>
</g>
</svg>
