<?xml version="1.0" encoding="utf-8"?>
<!-- Generator: Adobe Illustrator 18.0.0, SVG Export Plug-In . SVG Version: 6.00 Build 0)  -->
<!DOCTYPE svg PUBLIC "-//W3C//DTD SVG 1.1//EN" "http://www.w3.org/Graphics/SVG/1.1/DTD/svg11.dtd">
<svg version="1.1" id="Layer_1" xmlns="http://www.w3.org/2000/svg" xmlns:xlink="http://www.w3.org/1999/xlink" x="0px" y="0px"
	 viewBox="260.4 358.2 75.6 75.5" enable-background="new 260.4 358.2 75.6 75.5" xml:space="preserve">
<g id="PCmUKk_1_">
	<g>
		<path fill="#005D8E" d="M298.2,433.8c-12.5,0-24.9,0-37.4,0c-0.3,0-0.3-0.1-0.3-0.3c0-24.9,0-49.9,0-74.8c0-0.3,0.1-0.3,0.3-0.3
			c25,0,49.9,0,74.9,0c0.3,0,0.3,0.1,0.3,0.3c0,24.9,0,49.9,0,74.8c0,0.3-0.1,0.3-0.3,0.3C323.2,433.8,310.7,433.8,298.2,433.8z
			 M289.9,405.3c0,6.1,0,12.2,0,18.4c0,0.5,0,0.5,0.5,0.5c3.6,0,7.1,0,10.7,0c0.5,0,0.5,0,0.5-0.5c0-6.2,0-12.3,0-18.6
			c0-1.7,0.2-3.3,0.6-4.9c0.5-1.6,1.4-3,3-3.7c1.5-0.7,3-0.8,4.6-0.6c2.4,0.3,3.7,1.8,4.3,4c0.5,1.6,0.6,3.2,0.6,4.9
			c0,6.3,0,12.6,0,18.9c0,0.3,0.1,0.5,0.5,0.5c3.6,0,7.1,0,10.7,0c0.5,0,0.5,0,0.5-0.5c0-5.8,0-11.6,0-17.5c0-1.5,0-3,0-4.4
			c-0.1-1.1-0.1-2.2-0.2-3.4c-0.2-1.9-0.6-3.7-1.3-5.5c-1.1-3-3.1-5.1-6-6.3c-1.9-0.7-3.9-1-6-1.1c-1.7,0-3.4,0.1-5,0.7
			c-2.7,0.9-4.8,2.5-6.3,5c-0.1,0.2-0.1,0.4-0.3,0.3c-0.2,0-0.1-0.3-0.1-0.5c0-1.4,0-2.8,0-4.2c0-0.3-0.1-0.5-0.5-0.5
			c-3.4,0-6.8,0-10.3,0c-0.5,0-0.5,0-0.5,0.5C289.9,393.1,289.9,399.2,289.9,405.3z M282.5,405.3c0-6.1,0-12.2,0-18.4
			c0-0.3-0.1-0.5-0.5-0.5c-3.6,0-7.1,0-10.7,0c-0.5,0-0.5,0-0.5,0.5c0,12.2,0,24.4,0,36.7c0,0.5,0,0.5,0.5,0.5c3.5,0,7.1,0,10.6,0
			c0.6,0,0.6,0,0.6-0.6C282.5,417.5,282.5,411.4,282.5,405.3z M276.7,381.2c3.5,0.1,6.8-2.8,6.8-6.7c0-3.8-3-6.8-6.8-6.8
			c-3.8,0-6.8,3-6.8,6.8C269.9,378.4,273.1,381.4,276.7,381.2z"/>
	</g>
</g>
</svg>
